<svg xmlns="http://www.w3.org/2000/svg" width="21" height="20" viewBox="0 0 21 20" fill="none">
    <path d="M0.0488281 20V2C0.0488281 1.45 0.244828 0.979002 0.636828 0.587002C1.02883 0.195002 1.49949 -0.000664969 2.04883 1.69779e-06H18.0488C18.5988 1.69779e-06 19.0698 0.196002 19.4618 0.588002C19.8538 0.980002 20.0495 1.45067 20.0488 2V14C20.0488 14.55 19.8528 15.021 19.4608 15.413C19.0688 15.805 18.5982 16.0007 18.0488 16H4.04883L0.0488281 20ZM4.04883 12H12.0488V10H4.04883V12ZM4.04883 9H16.0488V7H4.04883V9ZM4.04883 6H16.0488V4H4.04883V6Z" fill="white"/>
  </svg>