<svg xmlns="http://www.w3.org/2000/svg" width="20" height="21" viewBox="0 0 20 21" fill="none">
    <g opacity="0.7">
      <path d="M16.3333 18L11.0833 12.75C10.6667 13.0833 10.1875 13.3472 9.64583 13.5417C9.10417 13.7361 8.52778 13.8333 7.91667 13.8333C6.40278 13.8333 5.12167 13.3089 4.07333 12.26C3.025 11.2111 2.50056 9.93 2.5 8.41667C2.5 6.90278 3.02444 5.62167 4.07333 4.57333C5.12222 3.525 6.40333 3.00056 7.91667 3C9.43056 3 10.7117 3.52444 11.76 4.57333C12.8083 5.62222 13.3328 6.90333 13.3333 8.41667C13.3333 9.02778 13.2361 9.60417 13.0417 10.1458C12.8472 10.6875 12.5833 11.1667 12.25 11.5833L17.5 16.8333L16.3333 18ZM7.91667 12.1667C8.95833 12.1667 9.84389 11.8019 10.5733 11.0725C11.3028 10.3431 11.6672 9.45778 11.6667 8.41667C11.6667 7.375 11.3019 6.48944 10.5725 5.76C9.84306 5.03056 8.95778 4.66611 7.91667 4.66667C6.875 4.66667 5.98944 5.03139 5.26 5.76083C4.53056 6.49028 4.16611 7.37556 4.16667 8.41667C4.16667 9.45833 4.53139 10.3439 5.26083 11.0733C5.99028 11.8028 6.87556 12.1672 7.91667 12.1667Z" fill="black"/>
    </g>
  </svg>