<svg xmlns="http://www.w3.org/2000/svg" width="33" height="33" viewBox="0 0 33 33" fill="none">
    <g clip-path="url(#clip0_243_879)">
        <path
            d="M2.5 27.5833V8.25M2.5 27.5833C2.5 27.5833 2.5 31.5833 0.5 31.5833M2.5 27.5833H30.5M30.5 27.5833C30.5 27.5833 30.5 31.5833 32.5 31.5833M30.5 27.5833V20.25C30.5 19.0123 30.0083 17.8253 29.1332 16.9502C28.258 16.075 27.071 15.5833 25.8333 15.5833H14.5V20.9167M2.5 23.5833H30.5M11.8333 18.1167C11.8333 18.1167 10.5 20.25 8.83333 20.25C8.52692 20.25 8.2235 20.1896 7.94041 20.0724C7.65731 19.9551 7.40009 19.7833 7.18342 19.5666C6.96675 19.3499 6.79488 19.0927 6.67761 18.8096C6.56035 18.5265 6.5 18.2231 6.5 17.9167C6.5 16.6287 7.54533 15.5887 8.83333 15.5887C10.5 15.5887 11.8333 17.7167 11.8333 17.7167V18.1167Z"
            stroke="black" stroke-width="1.33333" />
    </g>
    <defs>
        <clipPath id="clip0_243_879">
            <rect width="32" height="32" fill="white" transform="translate(0.5 0.25)" />
        </clipPath>
    </defs>
</svg>