<svg xmlns="http://www.w3.org/2000/svg" width="33" height="33" viewBox="0 0 33 33" fill="none">
    <path d="M24.752 2.58533C26.2207 2.73133 27.3133 3.81867 27.452 5.28867C27.638 7.24933 27.8333 10.6453 27.8333 16.25C27.8333 21.8547 27.638 25.25 27.452 27.2113C27.3133 28.6813 26.2207 29.7687 24.752 29.9147C23.0707 30.082 20.4093 30.25 16.5 30.25C12.5907 30.25 9.92933 30.082 8.248 29.9147C6.77933 29.7687 5.68666 28.6813 5.548 27.2113C5.362 25.2507 5.16666 21.8547 5.16666 16.25C5.16666 10.6453 5.362 7.25 5.548 5.28867C5.68666 3.81867 6.77933 2.73133 8.248 2.58533C9.92933 2.418 12.5907 2.25 16.5 2.25C20.4093 2.25 23.0707 2.418 24.752 2.58533Z" stroke="black" stroke-width="1.33" stroke-linecap="round" stroke-linejoin="round"/>
    <path d="M23.1667 16.25H20.5" stroke="black" stroke-width="1.33" stroke-linecap="round" stroke-linejoin="round"/>
  </svg>