<svg xmlns="http://www.w3.org/2000/svg" width="33" height="33" viewBox="0 0 33 33" fill="none">
    <g clip-path="url(#clip0_243_995)">
        <path
            d="M21.1667 4.25C21.1667 3.71957 21.3774 3.21086 21.7524 2.83579C22.1275 2.46071 22.6362 2.25 23.1667 2.25H27.8333V6.25H23.1667C22.6362 6.25 22.1275 6.03929 21.7524 5.66421C21.3774 5.28914 21.1667 4.78043 21.1667 4.25ZM21.1667 4.25H17.1667C14.3377 4.25 11.6246 5.37381 9.62418 7.37419C7.6238 9.37458 6.49999 12.0877 6.49999 14.9167V20.25C6.49999 21.1341 6.1488 21.9819 5.52368 22.607C4.89856 23.2321 4.05071 23.5833 3.16666 23.5833M16.5 4.25V0.25M22.5 16.9167H16.5V23.5833H22.5M22.5 14.25V31.5833H10.5V14.25C10.5 12.6587 11.1321 11.1326 12.2573 10.0074C13.3826 8.88214 14.9087 8.25 16.5 8.25C18.0913 8.25 19.6174 8.88214 20.7426 10.0074C21.8678 11.1326 22.5 12.6587 22.5 14.25Z"
            stroke="black" stroke-width="1.33333" />
    </g>
    <defs>
        <clipPath id="clip0_243_995">
            <rect width="32" height="32" fill="white" transform="translate(0.5 0.25)" />
        </clipPath>
    </defs>
</svg>