<svg xmlns="http://www.w3.org/2000/svg" width="33" height="33" viewBox="0 0 33 33" fill="none">
    <g clip-path="url(#clip0_243_981)">
      <path d="M18.34 0.940779C18.4118 0.920921 18.4881 0.925673 18.5569 0.954276C18.6257 0.982879 18.6829 1.03369 18.7194 1.09859C18.7559 1.1635 18.7696 1.23876 18.7584 1.31238C18.7471 1.386 18.7116 1.45374 18.6573 1.50478C18.0211 2.0644 17.5027 2.7451 17.1323 3.50717C16.7619 4.26924 16.547 5.09743 16.5 5.94345C16.4986 6.81641 16.6752 7.6805 17.0191 8.48289C17.363 9.28527 17.8669 10.0091 18.5 10.6101C19.474 9.63061 20.1412 8.38835 20.42 7.03545C20.4309 6.98502 20.4533 6.93781 20.4855 6.89752C20.5177 6.85722 20.5588 6.82495 20.6055 6.80324C20.6523 6.78153 20.7035 6.77097 20.7551 6.77239C20.8066 6.77382 20.8571 6.78718 20.9027 6.81145C22.4054 7.65354 23.6552 8.88263 24.5222 10.3711C25.3893 11.8595 25.842 13.5529 25.8333 15.2754C25.8333 17.7508 24.85 20.1248 23.0997 21.8751C21.3493 23.6254 18.9754 24.6088 16.5 24.6088C14.0246 24.6088 11.6507 23.6254 9.90033 21.8751C8.14999 20.1248 7.16666 17.7508 7.16666 15.2754C7.24605 12.0039 8.37494 8.84452 10.3868 6.26347C12.3986 3.68242 15.1868 1.81641 18.34 0.940779Z" stroke="black" stroke-width="1.33333" stroke-linecap="round" stroke-linejoin="round"/>
      <path d="M1.17067 31.5995L31.836 24.9248" stroke="black" stroke-width="1.33333" stroke-linecap="round" stroke-linejoin="round"/>
      <path d="M10.5 26.9606L1.16933 24.9326" stroke="black" stroke-width="1.33333" stroke-linecap="round" stroke-linejoin="round"/>
      <path d="M31.8373 31.5913L22.504 29.5659" stroke="black" stroke-width="1.33333" stroke-linecap="round" stroke-linejoin="round"/>
    </g>
    <defs>
      <clipPath id="clip0_243_981">
        <rect width="32" height="32" fill="white" transform="translate(0.5 0.25)"/>
      </clipPath>
    </defs>
  </svg>