<svg xmlns="http://www.w3.org/2000/svg" width="33" height="33" viewBox="0 0 33 33" fill="none">
    <path
        d="M30.8333 2.9165C23.4693 2.9165 17.5 8.88584 17.5 16.2498C17.5 23.6138 23.4693 29.5832 30.8333 29.5832"
        stroke="black" stroke-width="1.33333" stroke-linecap="round" stroke-linejoin="round" />
    <path
        d="M30.8333 8.25C26.4153 8.25 22.8333 11.832 22.8333 16.25C22.8333 20.668 26.4153 24.25 30.8333 24.25"
        stroke="black" stroke-width="1.33333" stroke-linecap="round" stroke-linejoin="round" />
    <path
        d="M13.7967 4.4885C14.1033 6.3005 14.5327 9.4665 14.498 12.8472C14.4807 14.5918 13.3153 16.1552 11.4833 16.5658C11.1047 16.6505 10.7013 16.7272 10.28 16.7865L11.4693 26.0752C11.6787 27.7092 10.6727 29.3285 9.03933 29.5418C8.83733 29.5678 8.65266 29.5832 8.49999 29.5832C8.31929 29.5805 8.13894 29.5665 7.95999 29.5412C6.32666 29.3278 5.32133 27.7092 5.53066 26.0752L6.71999 16.7865C6.31633 16.7292 5.91512 16.6558 5.51733 16.5665C3.68466 16.1552 2.51933 14.5912 2.50133 12.8465C2.46733 9.4665 2.89533 6.30117 3.20199 4.48917C3.35799 3.56584 4.16599 2.9165 5.10199 2.9165H11.8967C12.8333 2.9165 13.6407 3.56517 13.7967 4.4885Z"
        stroke="black" stroke-width="1.33333" stroke-linecap="round" stroke-linejoin="round" />
    <path d="M6.83333 2.9165L6.5 10.2498" stroke="black" stroke-width="1.33333"
        stroke-linecap="round" stroke-linejoin="round" />
    <path d="M10.1667 2.9165L10.5 10.2498" stroke="black" stroke-width="1.33333"
        stroke-linecap="round" stroke-linejoin="round" />
</svg>