<svg xmlns="http://www.w3.org/2000/svg" width="33" height="33" viewBox="0 0 33 33" fill="none">
    <path d="M27.1073 13.8028C28.754 13.8842 30.0913 15.0382 30.2607 16.6775C30.3907 17.9388 30.5 19.6675 30.5 21.9168C30.5 24.1662 30.3907 25.8948 30.2607 27.1562C30.0913 28.7962 28.754 29.9495 27.1073 30.0308C24.9633 30.1368 21.4953 30.2502 16.5 30.2502C11.5047 30.2502 8.03667 30.1368 5.89267 30.0308C4.246 29.9495 2.90867 28.7955 2.73933 27.1562C2.60933 25.8948 2.5 24.1662 2.5 21.9168C2.5 19.6675 2.60933 17.9388 2.73933 16.6775C2.90867 15.0375 4.246 13.8842 5.89267 13.8028C8.03667 13.6968 11.5047 13.5835 16.5 13.5835C21.4953 13.5835 24.9633 13.6968 27.1073 13.8028Z" stroke="black" stroke-width="1.33333" stroke-linecap="round" stroke-linejoin="round"/>
    <path d="M25.13 17.6C25.9153 17.6433 26.4387 18.2933 26.4627 19.08C26.4827 19.744 26.5 20.6786 26.5 21.9166C26.5017 22.8623 26.4892 23.808 26.4627 24.7533C26.4387 25.54 25.9153 26.19 25.1293 26.2333C24.7099 26.2565 24.2895 26.2565 23.87 26.2333C23.0847 26.19 22.5613 25.54 22.5373 24.7533C22.5108 23.808 22.4983 22.8623 22.5 21.9166C22.5 20.6786 22.5173 19.744 22.5373 19.08C22.5613 18.2933 23.0847 17.6433 23.8707 17.6C24.2901 17.5767 24.7105 17.5767 25.13 17.6Z" stroke="black" stroke-width="1.33333" stroke-linecap="round" stroke-linejoin="round"/>
    <path d="M17.13 17.6C17.9153 17.6433 18.4387 18.2933 18.4627 19.08C18.4827 19.744 18.5 20.6786 18.5 21.9166C18.5017 22.8623 18.4892 23.808 18.4627 24.7533C18.4387 25.54 17.9153 26.19 17.1293 26.2333C16.7099 26.2565 16.2895 26.2565 15.87 26.2333C15.0847 26.19 14.5613 25.54 14.5373 24.7533C14.5108 23.808 14.4983 22.8623 14.5 21.9166C14.5 20.6786 14.5173 19.744 14.5373 19.08C14.5613 18.2933 15.0847 17.6433 15.8707 17.6C16.2901 17.5767 16.7105 17.5767 17.13 17.6Z" stroke="black" stroke-width="1.33333" stroke-linecap="round" stroke-linejoin="round"/>
    <path d="M16.5 2.25C15.6647 3.35467 15.5593 4.71133 16.5 6.25C17.4407 7.78867 17.3353 9.14533 16.5 10.25" stroke="black" stroke-width="1.33333" stroke-linecap="round" stroke-linejoin="round"/>
    <path d="M9.83333 2.25C8.998 3.35467 8.89267 4.71133 9.83333 6.25C10.774 7.78867 10.6687 9.14533 9.83333 10.25" stroke="black" stroke-width="1.33333" stroke-linecap="round" stroke-linejoin="round"/>
    <path d="M23.1667 2.25C22.3313 3.35467 22.226 4.71133 23.1667 6.25C24.1073 7.78867 24.002 9.14533 23.1667 10.25" stroke="black" stroke-width="1.33333" stroke-linecap="round" stroke-linejoin="round"/>
    <path d="M10.5 19.5835C10.5 20.1139 10.2893 20.6226 9.91421 20.9977C9.53914 21.3728 9.03043 21.5835 8.5 21.5835C7.96957 21.5835 7.46086 21.3728 7.08579 20.9977C6.71071 20.6226 6.5 20.1139 6.5 19.5835C6.5 19.0531 6.71071 18.5444 7.08579 18.1693C7.46086 17.7942 7.96957 17.5835 8.5 17.5835C9.03043 17.5835 9.53914 17.7942 9.91421 18.1693C10.2893 18.5444 10.5 19.0531 10.5 19.5835Z" stroke="black" stroke-width="1.33333" stroke-linecap="round" stroke-linejoin="round"/>
  </svg>