<svg xmlns="http://www.w3.org/2000/svg" width="33" height="33" viewBox="0 0 33 33" fill="none">
    <path d="M2.89067 9.74067C3.03067 8.31867 4.004 7.17533 5.414 6.94333C7.402 6.61533 10.88 6.25 16.5 6.25C22.12 6.25 25.598 6.61533 27.5867 6.94333C28.996 7.17533 29.97 8.31867 30.1093 9.74067C30.2933 11.6053 30.5 14.534 30.5 18.25C30.5 21.966 30.2933 24.8947 30.1093 26.7593C29.9693 28.1813 28.996 29.3247 27.586 29.5567C25.598 29.8847 22.12 30.25 16.5 30.25C10.88 30.25 7.40267 29.8847 5.41333 29.5567C4.004 29.3247 3.03 28.1813 2.89067 26.7593C2.70667 24.8947 2.5 21.966 2.5 18.25C2.5 14.5347 2.70667 11.6053 2.89067 9.74067Z" stroke="black" stroke-width="1.33333" stroke-linecap="round" stroke-linejoin="round"/>
    <path d="M13.9133 23.5686C13.936 24.2012 14.3387 24.7386 14.966 24.8232C15.354 24.8759 15.8613 24.9166 16.5 24.9166C17.1387 24.9166 17.646 24.8759 18.034 24.8232C18.6607 24.7386 19.064 24.2012 19.0873 23.5686C19.1093 22.9652 19.134 22.0852 19.15 20.8999C20.3353 20.8839 21.2153 20.8592 21.8187 20.8372C22.4513 20.8139 22.9887 20.4106 23.0733 19.7839C23.126 19.3959 23.1667 18.8886 23.1667 18.2499C23.1667 17.6112 23.126 17.1039 23.0733 16.7159C22.9887 16.0892 22.4513 15.6859 21.8187 15.6626C21.2153 15.6406 20.3353 15.6159 19.15 15.5999C19.1392 14.7101 19.1184 13.8205 19.0873 12.9312C19.064 12.2986 18.6607 11.7612 18.034 11.6766C17.5253 11.6112 17.0129 11.5801 16.5 11.5832C15.8613 11.5832 15.354 11.6239 14.966 11.6766C14.3393 11.7612 13.936 12.2986 13.9127 12.9312C13.8907 13.5346 13.866 14.4146 13.85 15.5999C12.6647 15.6159 11.7847 15.6406 11.1813 15.6626C10.5487 15.6859 10.0113 16.0892 9.92668 16.7159C9.87401 17.1039 9.83334 17.6112 9.83334 18.2499C9.83334 18.8886 9.87401 19.3959 9.92668 19.7839C10.0113 20.4106 10.5487 20.8139 11.1813 20.8372C11.7847 20.8592 12.6647 20.8839 13.85 20.8999C13.866 22.0852 13.8913 22.9652 13.9133 23.5686Z" stroke="black" stroke-width="1.33333" stroke-linecap="round" stroke-linejoin="round"/>
    <path d="M11.6587 6.35272C11.9633 5.41472 12.484 4.31939 12.8747 3.55139C13.1933 2.92472 13.768 2.47405 14.464 2.38072C15.139 2.29189 15.8192 2.24824 16.5 2.25005C17.33 2.25005 18.0187 2.31072 18.5353 2.38072C19.2313 2.47405 19.806 2.92539 20.1247 3.55139C20.5153 4.31872 21.036 5.41472 21.3407 6.35272" stroke="black" stroke-width="1.33333" stroke-linecap="round" stroke-linejoin="round"/>
  </svg>