<svg xmlns="http://www.w3.org/2000/svg" width="33" height="33" viewBox="0 0 33 33" fill="none">
    <path d="M16.5 30.25H2.5V3.58333C2.5 3.58333 5.16667 2.25 9.5 2.25C13.8333 2.25 16.5 3.58333 16.5 3.58333V30.25ZM16.5 30.25V16.9167H16.8333C16.8333 16.9167 19.1667 18.25 23.5 18.25C27.8333 18.25 30.1667 16.9167 30.1667 16.9167H30.5V30.25H16.5ZM2.5 12.9167C2.5 12.9167 5.16667 11.5833 9.5 11.5833C13.8333 11.5833 16.5 12.9167 16.5 12.9167M5.83333 6.25V8.91667M5.83333 14.9167V17.5833M25.1667 18.182V13.25C25.1667 12.808 24.9911 12.384 24.6785 12.0715C24.366 11.7589 23.942 11.5833 23.5 11.5833C23.058 11.5833 22.634 11.7589 22.3215 12.0715C22.0089 12.384 21.8333 12.808 21.8333 13.25V13.5833" stroke="black" stroke-width="1.33333"/>
  </svg>