<svg xmlns="http://www.w3.org/2000/svg" width="33" height="33" viewBox="0 0 33 33" fill="none">
    <g clip-path="url(#clip0_243_869)">
        <path
            d="M19.1667 32.2501V23.5834C19.1667 22.8762 19.4476 22.1979 19.9477 21.6978C20.4478 21.1977 21.1261 20.9168 21.8333 20.9168V10.2501C21.8333 10.2501 19.8333 8.91677 16.5 8.91677C13.1667 8.91677 11.1667 10.2501 11.1667 10.2501V20.9168C11.8739 20.9168 12.5522 21.1977 13.0523 21.6978C13.5524 22.1979 13.8333 22.8762 13.8333 23.5834V32.2501M16.3 6.2501C16.3 6.2501 14.1667 4.91677 14.1667 3.2501C14.1667 2.63197 14.4122 2.03915 14.8493 1.60207C15.2864 1.16499 15.8792 0.919434 16.4973 0.919434C17.1155 0.919434 17.7083 1.16499 18.1454 1.60207C18.5825 2.03915 18.828 2.63197 18.828 3.2501C18.828 4.91677 16.7 6.2501 16.7 6.2501H16.3Z"
            stroke="black" stroke-width="1.33" />
    </g>
    <defs>
        <clipPath id="clip0_243_869">
            <rect width="32" height="32" fill="white" transform="translate(0.5 0.25)" />
        </clipPath>
    </defs>
</svg>