<svg xmlns="http://www.w3.org/2000/svg" width="33" height="33" viewBox="0 0 33 33" fill="none">
    <g clip-path="url(#clip0_243_915)">
      <path d="M32.5001 8.91677C32.0614 8.91677 31.6214 9.0101 31.2508 9.24343C29.1668 10.5608 29.1668 12.3568 29.1668 13.5834V14.2501H23.1668M12.5001 18.2501H32.5001M22.5001 18.2501V32.2501M16.5001 31.5834C15.1668 31.5834 14.1668 29.5834 14.1668 29.5834C13.1668 27.5834 13.1668 26.2501 13.1668 24.2501V22.2501H2.50009V21.9168L5.06276 11.9234C5.28327 11.0633 5.78371 10.301 6.48523 9.75661C7.18676 9.21224 8.04947 8.91677 8.93743 8.91677H10.5001L12.4294 12.7754C12.6509 13.2187 12.9916 13.5915 13.4132 13.852C13.8347 14.1125 14.3205 14.2503 14.8161 14.2501H20.5001M10.3001 6.2501C10.3001 6.2501 8.16676 4.91677 8.16676 3.2501C8.16676 2.94403 8.22704 2.64096 8.34417 2.35819C8.4613 2.07542 8.63297 1.81849 8.84939 1.60207C9.06582 1.38565 9.32275 1.21397 9.60552 1.09684C9.88829 0.979718 10.1914 0.919434 10.4974 0.919434C10.8035 0.919434 11.1066 0.979718 11.3893 1.09684C11.6721 1.21397 11.929 1.38565 12.1455 1.60207C12.3619 1.81849 12.5336 2.07542 12.6507 2.35819C12.7678 2.64096 12.8281 2.94403 12.8281 3.2501C12.8281 4.91677 10.7001 6.2501 10.7001 6.2501H10.3001Z" stroke="black" stroke-width="1.33333"/>
    </g>
    <defs>
      <clipPath id="clip0_243_915">
        <rect width="32" height="32" fill="white" transform="translate(0.5 0.25)"/>
      </clipPath>
    </defs>
  </svg>