<svg xmlns="http://www.w3.org/2000/svg" width="33" height="33" viewBox="0 0 33 33" fill="none">
    <path d="M27.1454 2.641C28.7714 2.77566 30.0161 4.021 30.1507 5.64633C30.3287 7.789 30.5207 11.2617 30.5207 16.271C30.5207 21.2803 30.3287 24.753 30.1507 26.8957C30.0161 28.5217 28.7707 29.7663 27.1454 29.901C25.0027 30.079 21.5301 30.271 16.5207 30.271C11.5114 30.271 8.03874 30.079 5.89608 29.901C4.27008 29.7663 3.02541 28.521 2.89074 26.8957C2.71274 24.753 2.52074 21.2803 2.52074 16.271C2.52074 14.3197 2.47408 12.435 2.52074 10.9377L11.1874 2.271C12.6847 2.22433 14.5694 2.271 16.5207 2.271C21.5301 2.271 25.0027 2.463 27.1454 2.641Z" stroke="black" stroke-width="1.33333" stroke-linecap="round" stroke-linejoin="round"/>
    <path d="M2.52074 10.9375C4.82007 10.8668 6.58808 10.7428 7.87141 10.6215C9.48874 10.4688 10.7181 9.23883 10.8714 7.6215C10.9927 6.33883 11.1167 4.57017 11.1874 2.27083" stroke="black" stroke-width="1.33333" stroke-linecap="round" stroke-linejoin="round"/>
  </svg>