<svg xmlns="http://www.w3.org/2000/svg" width="33" height="33" viewBox="0 0 33 33" fill="none">
    <g clip-path="url(#clip0_243_883)">
      <path d="M6 5.25C6 5.70963 6.09053 6.16476 6.26642 6.5894C6.44231 7.01404 6.70012 7.39988 7.02513 7.72488C7.35013 8.04989 7.73597 8.3077 8.16061 8.48359C8.58525 8.65948 9.04037 8.75001 9.5 8.75001C9.95963 8.75001 10.4148 8.65948 10.8394 8.48359C11.264 8.3077 11.6499 8.04989 11.9749 7.72488C12.2999 7.39988 12.5577 7.01404 12.7336 6.5894C12.9095 6.16476 13 5.70963 13 5.25C13 4.79038 12.9095 4.33525 12.7336 3.91061C12.5577 3.48597 12.2999 3.10013 11.9749 2.77513C11.6499 2.45012 11.264 2.19231 10.8394 2.01642C10.4148 1.84053 9.95963 1.75 9.5 1.75C9.04037 1.75 8.58525 1.84053 8.16061 2.01642C7.73597 2.19231 7.35013 2.45012 7.02513 2.77513C6.70012 3.10013 6.44231 3.48597 6.26642 3.91061C6.09053 4.33525 6 4.79038 6 5.25Z" stroke="black" stroke-width="1.33" stroke-linecap="round" stroke-linejoin="round"/>
      <path d="M19.6053 16.7502H29.5C30.0304 16.7502 30.5391 16.961 30.9142 17.336C31.2893 17.7111 31.5 18.2198 31.5 18.7502V20.7502C31.5 25.1689 25.9187 28.7503 21.5 28.7503H11.5C7.08133 28.7503 1.5 25.1689 1.5 20.7502V18.7502C1.5 18.2198 1.71071 17.7111 2.08579 17.336C2.46086 16.961 2.96957 16.7502 3.5 16.7502H6.5V12.7502C6.49968 12.3698 6.60784 11.9973 6.81179 11.6762C7.01575 11.3551 7.30704 11.0988 7.65149 10.9375C7.99594 10.7761 8.37928 10.7163 8.75652 10.7651C9.13376 10.8138 9.48927 10.9692 9.78133 11.2129L13.4867 14.3009C13.8177 14.5765 14.2286 14.7382 14.6586 14.7622C15.0887 14.7862 15.515 14.6712 15.8747 14.4342L19.3907 12.0902C19.8327 11.796 20.3735 11.6895 20.8941 11.794C21.1519 11.8457 21.3969 11.9477 21.6153 12.0942C21.8336 12.2407 22.021 12.4287 22.1667 12.6476C22.3123 12.8664 22.4135 13.1119 22.4643 13.3698C22.5152 13.6278 22.5147 13.8932 22.4629 14.151C22.4112 14.4088 22.3092 14.6538 22.1627 14.8722C22.0162 15.0905 21.8282 15.2779 21.6093 15.4236L18.1 17.7582C17.0214 18.4702 15.7428 18.8173 14.4523 18.7484C13.1617 18.6795 11.9273 18.1983 10.9307 17.3756L10.1747 16.7409" stroke="black" stroke-width="1.33" stroke-linecap="round" stroke-linejoin="round"/>
      <path d="M5.5 30.7499L8.11467 28.1353" stroke="black" stroke-width="1.33" stroke-linecap="round" stroke-linejoin="round"/>
      <path d="M27.5 30.7499L24.8853 28.1353" stroke="black" stroke-width="1.33" stroke-linecap="round" stroke-linejoin="round"/>
    </g>
    <defs>
      <clipPath id="clip0_243_883">
        <rect width="32" height="32" fill="white" transform="translate(0.5 0.25)"/>
      </clipPath>
    </defs>
  </svg>