<svg xmlns="http://www.w3.org/2000/svg" width="33" height="33" viewBox="0 0 33 33" fill="none">
    <path d="M19.166 23.5859L19.618 25.8473C19.6784 26.1495 19.8417 26.4215 20.08 26.617C20.3184 26.8124 20.6171 26.9192 20.9253 26.9193H21.526C21.9884 26.9192 22.4365 27.0794 22.7941 27.3726C23.1517 27.6658 23.3967 28.0738 23.4873 28.5273L23.514 28.6579C23.5527 28.8514 23.5479 29.0511 23.5001 29.2425C23.4523 29.4339 23.3626 29.6123 23.2374 29.7649C23.1123 29.9174 22.9549 30.0403 22.7765 30.1246C22.5982 30.209 22.4033 30.2527 22.206 30.2526H10.7927C10.5954 30.2527 10.4005 30.209 10.2221 30.1246C10.0438 30.0403 9.88635 29.9174 9.76123 29.7649C9.6361 29.6123 9.54639 29.4339 9.49857 29.2425C9.45074 29.0511 9.44599 28.8514 9.48466 28.6579L9.51133 28.5273C9.60194 28.0739 9.8468 27.666 10.2043 27.3728C10.5617 27.0797 11.0097 26.9194 11.472 26.9193H12.0727C12.3809 26.9192 12.6796 26.8124 12.918 26.617C13.1563 26.4215 13.3196 26.1495 13.38 25.8473L13.8333 23.5859" stroke="black" stroke-width="1.33333" stroke-linecap="round" stroke-linejoin="round"/>
    <path d="M2.796 20.2808C2.95267 21.9661 4.28933 23.2041 5.97867 23.3095C8.12867 23.4428 11.5707 23.5848 16.5 23.5848C21.4293 23.5848 24.8713 23.4428 27.0213 23.3095C28.7107 23.2041 30.0473 21.9661 30.204 20.2808C30.3573 18.6301 30.5 16.2095 30.5 12.9181C30.5 9.6268 30.3573 7.20613 30.204 5.55547C30.0473 3.87013 28.7107 2.63213 27.0213 2.5268C24.8713 2.39346 21.4293 2.25146 16.5 2.25146C11.5707 2.25146 8.12867 2.3928 5.97867 2.5268C4.28933 2.63213 2.95267 3.87013 2.796 5.55547C2.64267 7.20547 2.5 9.62613 2.5 12.9181C2.5 16.2101 2.64267 18.6301 2.796 20.2808Z" stroke="black" stroke-width="1.33333" stroke-linejoin="round"/>
  </svg>