<svg xmlns="http://www.w3.org/2000/svg" width="33" height="33" viewBox="0 0 33 33" fill="none">
    <path d="M26.4947 15.5833C26.498 15.154 26.5 14.71 26.5 14.25C26.5 10.338 26.3633 7.51933 26.224 5.66C26.096 3.95533 24.7947 2.654 23.09 2.52667C21.2307 2.386 18.412 2.25 14.5 2.25C10.588 2.25 7.76933 2.38667 5.91 2.526C4.20533 2.654 2.904 3.95533 2.77667 5.66C2.636 7.51933 2.5 10.338 2.5 14.25C2.5 18.162 2.63667 20.9807 2.776 22.84C2.904 24.5447 4.20733 25.846 5.912 25.9733C7.25667 26.0747 9.10267 26.174 11.5 26.2213" stroke="black" stroke-width="1.33333" stroke-linecap="round" stroke-linejoin="round"/>
    <path d="M22.5 8.25C22.5 8.78043 22.2893 9.28914 21.9142 9.66421C21.5391 10.0393 21.0304 10.25 20.5 10.25C19.9696 10.25 19.4609 10.0393 19.0858 9.66421C18.7107 9.28914 18.5 8.78043 18.5 8.25C18.5 7.71957 18.7107 7.21086 19.0858 6.83579C19.4609 6.46071 19.9696 6.25 20.5 6.25C21.0304 6.25 21.5391 6.46071 21.9142 6.83579C22.2893 7.21086 22.5 7.71957 22.5 8.25Z" stroke="black" stroke-width="1.33333" stroke-linecap="round" stroke-linejoin="round"/>
    <path d="M2.51999 16.7958C5.15866 14.2931 6.99332 12.8944 8.15132 12.1258C9.10999 11.4898 10.2793 11.5978 11.1687 12.3284C12.1473 13.1331 13.688 14.4871 15.9793 16.7144C17.5473 15.3451 18.7227 14.4724 19.5513 13.9224C20.5107 13.2864 21.682 13.3944 22.5713 14.1251C22.7507 14.2724 22.9487 14.4384 23.1667 14.6244" stroke="black" stroke-width="1.33333" stroke-linecap="round" stroke-linejoin="round"/>
    <path d="M14.6033 24.8847C14.4608 24.4736 14.4608 24.0264 14.6033 23.6153C15.684 20.5013 18.81 18.25 22.4987 18.25C26.1867 18.25 29.3127 20.5013 30.3933 23.6153C30.5359 24.0264 30.5359 24.4736 30.3933 24.8847C29.3133 27.9987 26.1867 30.25 22.4973 30.25C18.8093 30.25 15.6833 27.9987 14.6033 24.8847Z" stroke="black" stroke-width="1.33333" stroke-linecap="round" stroke-linejoin="round"/>
    <path d="M19.8333 24.2502C19.8333 24.9574 20.1143 25.6357 20.6144 26.1358C21.1145 26.6359 21.7928 26.9168 22.5 26.9168C23.2073 26.9168 23.8855 26.6359 24.3856 26.1358C24.8857 25.6357 25.1667 24.9574 25.1667 24.2502C25.1667 23.5429 24.8857 22.8646 24.3856 22.3645C23.8855 21.8644 23.2073 21.5835 22.5 21.5835C21.7928 21.5835 21.1145 21.8644 20.6144 22.3645C20.1143 22.8646 19.8333 23.5429 19.8333 24.2502Z" stroke="black" stroke-width="1.33333" stroke-linecap="round" stroke-linejoin="round"/>
  </svg>