<svg xmlns="http://www.w3.org/2000/svg" width="33" height="33" viewBox="0 0 33 33" fill="none">
    <path d="M4.1185 8.16517C4.05658 9.30117 4.86275 10.2498 5.87001 10.2498H27.1299C28.1372 10.2498 28.9434 9.30117 28.8814 8.16517C28.8449 7.5105 28.8071 6.92984 28.77 6.4205C28.6461 4.71717 27.4885 3.4165 25.9817 3.27984C24.0486 3.10317 20.9471 2.9165 16.5 2.9165C12.0522 2.9165 8.95137 3.10317 7.01763 3.27984C5.51086 3.4165 4.35381 4.7165 4.22937 6.4205C4.19222 6.92984 4.15448 7.50984 4.1185 8.16517Z" stroke="black" stroke-width="1.33333" stroke-linecap="round" stroke-linejoin="round"/>
    <path d="M4.49944 10.25V17.5833C4.49944 21.4953 4.6361 24.314 4.77544 26.1733C4.90344 27.878 6.20477 29.1793 7.90944 29.3067C9.76877 29.4467 12.5874 29.5833 16.4994 29.5833C20.4114 29.5833 23.2301 29.4467 25.0894 29.3073C26.7941 29.1793 28.0954 27.878 28.2228 26.1733C28.3628 24.314 28.4994 21.4953 28.4994 17.5833V10.25" stroke="black" stroke-width="1.33333" stroke-linecap="round" stroke-linejoin="round"/>
    <circle cx="16.4994" cy="19.9163" r="6.00553" stroke="black" stroke-width="1.33333"/>
  </svg>