<svg xmlns="http://www.w3.org/2000/svg" width="33" height="33" viewBox="0 0 33 33" fill="none">
    <g clip-path="url(#clip0_243_905)">
      <path d="M18.1373 6.61274L22.1773 2.57274C22.9683 1.78149 23.9763 1.24261 25.0736 1.02427C26.1709 0.805936 27.3083 0.917946 28.342 1.34613C29.3756 1.77432 30.259 2.49945 30.8805 3.4298C31.502 4.36015 31.8336 5.45391 31.8333 6.57274V32.2501M8.23733 10.8554L6.35333 12.7407M5.88266 16.0407L3.99333 17.9261M3.05066 13.2127L1.16666 15.0981M8.70933 18.8701L6.824 20.7554M11.5373 21.6981L9.652 23.5834M13.8947 16.5127L12.0093 18.3967M11.0667 13.6821L9.18 15.5701M14.8373 3.31274L14.6307 3.5194C13.2453 4.90475 11.3998 5.73359 9.444 5.84874L8.47333 5.90607L8.23733 6.14207L18.6093 16.5127L18.844 16.2767L18.9013 15.3061C19.0165 13.3503 19.8453 11.5047 21.2307 10.1194L21.4373 9.91274L14.8373 3.31274Z" stroke="black" stroke-width="1.33333"/>
    </g>
    <defs>
      <clipPath id="clip0_243_905">
        <rect width="32" height="32" fill="white" transform="translate(0.5 0.25)"/>
      </clipPath>
    </defs>
  </svg>