<svg xmlns="http://www.w3.org/2000/svg" width="33" height="33" viewBox="0 0 33 33" fill="none">
    <path d="M19.1418 25.25C19.1418 25.9571 18.8609 26.6352 18.3609 27.1351C17.861 27.6351 17.1829 27.916 16.4758 27.916C15.7687 27.916 15.0906 27.6351 14.5906 27.1351C14.0907 26.6352 13.8098 25.9571 13.8098 25.25C13.8098 24.5429 14.0907 23.8648 14.5906 23.3648C15.0906 22.8649 15.7687 22.584 16.4758 22.584C17.1829 22.584 17.861 22.8649 18.3609 23.3648C18.8609 23.8648 19.1418 24.5429 19.1418 25.25Z" stroke="black" stroke-width="1.33333" stroke-linecap="round" stroke-linejoin="round"/>
    <path fill-rule="evenodd" clip-rule="evenodd" d="M3.29977 11.3168C2.83311 10.4995 2.99311 9.4595 3.73777 8.8835C6.95511 6.39883 11.2091 4.5835 16.4998 4.5835C21.7911 4.5835 26.0451 6.39816 29.2624 8.8835C30.0071 9.4595 30.1671 10.5002 29.6998 11.3168L29.0451 12.4628C28.4184 13.5595 26.9464 13.8015 25.9091 13.0815C23.3771 11.3248 20.1624 9.91683 16.4998 9.91683C12.8378 9.91683 9.62244 11.3248 7.09111 13.0815C6.05311 13.8015 4.58111 13.5595 3.95511 12.4628L3.29977 11.3168Z" stroke="black" stroke-width="1.33333" stroke-linecap="round" stroke-linejoin="round"/>
    <path fill-rule="evenodd" clip-rule="evenodd" d="M8.77578 18.6637C8.23245 17.8483 8.34778 16.7437 9.13712 16.1637C11.0118 14.7877 13.2818 13.917 16.4998 13.917C19.7184 13.917 21.9884 14.7877 23.8624 16.1637C24.6524 16.7437 24.7678 17.8483 24.2244 18.6637L23.5884 19.617C23.0184 20.473 21.8098 20.6103 20.9231 20.089C19.7524 19.4003 18.2171 18.821 16.4998 18.821C14.7824 18.821 13.2478 19.401 12.0771 20.089C11.1904 20.6103 9.98178 20.473 9.41178 19.6177L8.77578 18.6637Z" stroke="black" stroke-width="1.33333" stroke-linecap="round" stroke-linejoin="round"/>
  </svg>