<svg xmlns="http://www.w3.org/2000/svg" width="16" height="17" viewBox="0 0 16 17" fill="none">
    <g clip-path="url(#clip0_0_121)">
      <path fill-rule="evenodd" clip-rule="evenodd" d="M8.00006 0.5C11.6401 0.5 14.6721 3.532 14.6721 7.17067C14.6721 8.35904 14.264 9.53074 13.6934 10.5914C13.12 11.6576 12.362 12.6516 11.6096 13.4984C10.9536 14.2352 10.2481 14.9263 9.49801 15.567C9.25306 15.7769 9.00021 15.9774 8.74002 16.1681C8.65225 16.2319 8.56194 16.2921 8.4693 16.3486C8.39245 16.3942 8.31159 16.4328 8.22774 16.4638C8.04206 16.5238 7.84031 16.5088 7.66549 16.4222C7.61887 16.4001 7.57345 16.3755 7.52944 16.3486C7.43626 16.2908 7.34549 16.2292 7.25733 16.1639C6.99755 15.9723 6.74516 15.7709 6.50072 15.56C5.75148 14.9159 5.04649 14.2221 4.39054 13.4832C3.6381 12.6335 2.8801 11.6368 2.30813 10.5747C1.73754 9.51686 1.328 8.34932 1.328 7.17067C1.328 3.532 4.36 0.5 8.00006 0.5ZM8.00006 9.16285C7.73845 9.16285 7.47939 9.11132 7.23769 9.0112C6.99599 8.91109 6.77637 8.76435 6.59138 8.57936C6.40639 8.39436 6.25965 8.17475 6.15953 7.93305C6.05941 7.69134 6.00789 7.43229 6.00789 7.17067C6.00789 6.90906 6.05941 6.65 6.15953 6.4083C6.25965 6.1666 6.40639 5.94698 6.59138 5.76199C6.77637 5.577 6.99599 5.43026 7.23769 5.33014C7.47939 5.23002 7.73845 5.17849 8.00006 5.17849C8.52842 5.17849 9.03514 5.38838 9.40875 5.76199C9.78235 6.1356 9.99224 6.64231 9.99224 7.17067C9.99224 7.69903 9.78235 8.20575 9.40875 8.57936C9.03514 8.95296 8.52842 9.16285 8.00006 9.16285Z" fill="#413F3D"/>
    </g>
    <defs>
      <clipPath id="clip0_0_121">
        <rect width="16" height="16" fill="white" transform="translate(0 0.25)"/>
      </clipPath>
    </defs>
  </svg>