<svg xmlns="http://www.w3.org/2000/svg" width="25" height="25" viewBox="0 0 25 25" fill="none">
    <path
        d="M2.04895 22.0488V4.04883C2.04895 3.49883 2.24495 3.02783 2.63695 2.63583C3.02895 2.24383 3.49962 2.04816 4.04895 2.04883H20.049C20.5989 2.04883 21.07 2.24483 21.462 2.63683C21.854 3.02883 22.0496 3.4995 22.049 4.04883V16.0488C22.049 16.5988 21.853 17.0698 21.461 17.4618C21.069 17.8538 20.5983 18.0495 20.049 18.0488H6.04895L2.04895 22.0488ZM6.04895 14.0488H14.049V12.0488H6.04895V14.0488ZM6.04895 11.0488H18.049V9.04883H6.04895V11.0488ZM6.04895 8.04883H18.049V6.04883H6.04895V8.04883Z"
        fill="#1E2EBE" />
</svg>