<svg xmlns="http://www.w3.org/2000/svg" width="25" height="25" viewBox="0 0 25 25" fill="none">
    <path d="M2.04895 22.049V4.04895C2.04895 3.49895 2.24495 3.02795 2.63695 2.63595C3.02895 2.24395 3.49962 2.04829 4.04895 2.04895H20.049C20.5989 2.04895 21.07 2.24495 21.462 2.63695C21.854 3.02895 22.0496 3.49962 22.049 4.04895V16.049C22.049 16.599 21.853 17.07 21.461 17.462C21.069 17.854 20.5983 18.0496 20.049 18.049H6.04895L2.04895 22.049ZM6.04895 14.049H14.049V12.049H6.04895V14.049ZM6.04895 11.049H18.049V9.04895H6.04895V11.049ZM6.04895 8.04895H18.049V6.04895H6.04895V8.04895Z" fill="#1E2EBE"/>
  </svg>