<svg xmlns="http://www.w3.org/2000/svg" width="292" height="200" viewBox="0 0 292 200" fill="none">
    <path d="M266.884 3.70211C264.497 5.25782 260.95 8.68688 258.808 11.5887C254.326 18.0564 248.039 35.1744 243.985 52.5867L241.031 65.2009L234.542 72.5396C227.721 80.1909 220.599 87.6019 218.654 89.0155C217.982 89.5504 219.229 86.8425 221.358 83.026C226.625 73.8118 231.429 61.3524 232.302 54.5648C233.905 43.7542 231.046 33.1793 225.992 30.6427C222.005 28.6253 215.476 30.0136 210.945 33.6469C201.461 41.2365 199.258 53.215 200.852 88.7619L201.567 104.621L196.022 109.011C187.391 116.045 168.769 129.444 163.432 132.437C163 132.67 166.061 128.197 170.355 122.484C182.835 105.848 187.903 94.0912 186.795 84.4152C185.761 75.3723 180.541 71.3888 172.033 73.0951C163.254 74.8325 157.682 82.9823 154.676 98.3508C152.789 108.278 150.274 126.338 149.591 135.578L149.147 141.309L142.916 144.495C139.544 146.255 135.661 148.348 134.196 149.157C125.939 153.858 92.3701 167.135 91.1608 166.174C90.9592 166.014 93.9637 162.647 97.8207 158.724C114.331 142.086 124.496 124.432 122.358 116.157C121.167 111.346 118.645 108.52 114.56 107.246C108.503 105.557 102.602 108.431 95.8931 116.253C89.1144 124.266 84.5738 137.428 81.9538 156.967L80.405 169.054L76.0464 170.194C63.402 173.381 43.9542 173.957 32.4873 171.421C23.183 169.371 14.1936 165.269 8.63028 160.684C3.05657 156.008 2.86537 155.938 0.94068 157.532C-0.072052 158.29 0.0701088 158.731 1.72391 160.374C16.3341 174.369 43.1565 178.995 74.8996 172.982L87.5467 170.619L99.4382 180.068C106.593 185.754 114.632 191.156 119.585 193.612C139.531 203.79 153.544 201.362 151.943 188.17C151.025 180.946 144.025 173.41 135.028 170.042C130.057 168.228 119.316 166.434 112.329 166.226C104.619 166.1 104.808 165.346 113.411 162.071C117.889 160.368 125.317 157.228 129.843 155.152L138.193 151.265L141.064 153.135C146.1 156.315 159.407 162.122 166.34 164.261C178.755 167.879 186.447 168.648 197.156 166.964C208.871 165.258 214.128 162.366 216.37 156.338C217.716 152.886 217.654 152.343 216.095 149.132C215.002 146.783 212.935 144.729 210.175 143.03C202.703 138.571 192.66 138.071 170.375 141.079C161.443 142.284 154.108 143.031 154.168 142.75C154.137 142.479 158.991 139.266 164.889 135.568C170.878 131.86 180.545 125.074 186.531 120.541L197.501 112.323L200.911 113.307C206.213 114.808 221.259 117.392 230.057 118.218C235.245 118.724 241.727 118.532 249.223 117.583C258.989 116.465 261.219 115.935 265.704 113.498C275.638 108.239 277.836 101.025 271.293 95.0859C262.492 87.0231 244.284 88.8314 216.56 100.34C212.364 102.103 208.76 103.431 208.659 103.351C208.457 103.191 213.397 98.3202 219.6 92.4801C225.883 86.5393 234.418 77.8672 238.645 73.1695C245.144 65.9213 247.4 64.0142 252.859 61.2825C277.927 48.9782 291.916 32.7195 291.421 16.3775C291.306 12.1763 290.748 10.4995 288.658 7.44065C285.233 2.3356 281.83 0.617831 275.991 0.827847C272.253 0.980755 270.134 1.68122 266.884 3.70211ZM224.378 34.95C225.941 36.6034 226.53 38.5515 227.161 44.0677C227.596 47.8657 227.692 52.7102 227.307 54.9529C225.981 64.1745 218.206 81.0964 209.802 93.3263L206.741 97.7991L206.071 92.7454C205.409 86.9579 205.05 62.9963 205.54 56.0693C206.223 46.8297 209.687 39.4708 215.482 34.8684C218.75 32.2042 221.866 32.2141 224.378 34.95ZM114.565 112.101C116.782 113.863 117.157 114.736 117.22 118.485C117.298 123.973 115.097 130.363 110.747 137.182C107.477 142.229 90.7623 161.089 87.4528 163.392C86.0086 164.382 85.8975 164.211 86.1193 161.346C86.7515 154.86 90.6587 138.564 93.4275 130.735C99.1639 114.413 107.824 106.826 114.565 112.101ZM193.399 142.934C204.739 143.56 211.385 147.197 212.068 153.165C212.74 159.043 205.687 163.057 193.115 163.671C184.01 164.163 175.501 162.663 163.678 158.61C153.846 155.154 143.588 150.373 144.229 149.567C145.921 147.541 183.909 142.462 193.399 142.934Z" fill="#19AE28"/>
  </svg>