<svg xmlns="http://www.w3.org/2000/svg" width="319" height="129" viewBox="0 0 319 129" fill="none">
    <path d="M122.942 0.872427C99.3346 4.75922 87.3649 8.30095 70.9491 16.3155C55.8399 23.749 45.5193 31.2117 33.7576 43.2005C17.3647 59.8523 8.47246 75.7455 2.95957 98.5407C1.001 106.454 0.323634 111.908 0.322385 118.762L0.261525 128.152L41.8498 127.871L83.3428 127.498L83.2515 120.74C82.9838 93.9853 98.3644 71.9017 122.486 64.4402C129.218 62.3776 143.671 61.9006 151.017 63.5851C158.645 65.3598 169.038 70.1953 175.583 75.0829C180.42 78.6791 191.756 90.8251 191.778 92.4209C191.782 92.7025 188.689 93.1198 184.844 93.4535C168.619 94.7055 157.517 106.873 158.567 122.069L158.915 126.946L237.675 126.163C295.031 125.482 316.713 125.001 317.641 124.237C319.683 122.52 319.135 109.759 316.785 102.561C311.885 87.3236 297.526 80.8517 283.439 87.5203L278.122 90.0333L278.043 84.2133C277.775 71.3544 272.703 57.246 265.369 49.5525C257.083 40.8391 243.043 37.0856 231.447 40.4345L226.303 41.9123L224.485 39.402C220.947 34.6615 208.207 22.9101 202.145 18.9549C187.746 9.4791 168.88 2.88035 150.638 0.87361C142.647 0.0427612 127.999 -0.0409206 122.942 0.872427ZM162.245 5.22331C176.562 8.59752 191.49 15.5312 202.21 23.7422C212.645 31.6755 223.7 43.8253 221.271 44.7031C220.616 44.8997 218.665 46.4283 216.902 47.9543L213.748 50.8135L209.287 47.2123C188.788 30.9652 166.605 22.158 139.907 19.6083C117.159 17.5686 92.1688 23.3518 72.5209 35.3533C44.3079 52.7282 24.2769 85.0145 21.4368 118.007L20.8749 125.056L13.4629 125.438C9.3352 125.682 5.67046 125.45 5.19477 124.987C3.95796 123.783 5.70085 106.86 7.92706 97.9103C16.5592 62.7737 38.8228 35.9027 72.8659 19.2001C87.6022 11.9593 105.082 6.27762 119.604 4.01581C129.442 2.47454 153.392 3.18357 162.245 5.22331ZM141.078 22.8786C160.997 24.0176 186.296 34.191 204.516 48.4973L210.969 53.5738L207.658 58.6885L204.255 63.8983L199.887 60.2957C182.896 46.5362 164.602 40.6808 139.916 41.1084C116.074 41.5245 93.1736 49.0634 76.4495 62.0581C61.49 73.6206 50.1204 93.7723 47.4756 113.43C46.8743 117.57 46.2756 121.896 46.1031 123.025C45.7555 125.096 45.3813 125.195 35.8065 125.324L25.7625 125.46L26.3396 119.537C28.1611 101.486 33.7616 85.168 43.2323 70.3936C61.1639 42.5484 88.5396 25.7481 120.422 22.8761C124.829 22.441 129.708 22.1872 131.212 22.3547C132.809 22.427 137.225 22.649 141.078 22.8786ZM251.782 44.5723C257.54 46.8417 263.16 52.7745 266.923 60.3285C270.593 67.8838 272.295 75.7473 272.747 88.3221C273.077 98.833 273.932 99.5725 279.871 94.4223C287.482 87.9351 296.661 86.3089 302.446 90.5495C306.332 93.3136 310.926 99.7297 312.204 104.031C312.891 106.181 313.517 110.867 313.567 114.528L313.749 121.098L238.282 122.4L162.813 123.607L163.41 119.187C164.167 112.698 168.286 104.85 172.839 101.314C179.714 95.9639 188.151 95.0048 200.026 98.3182C202.57 99.0349 202.57 99.0349 203.827 87.8453C206.69 63.4898 218.656 45.7712 234.202 42.8383C239.726 41.7309 246.778 42.4806 251.782 44.5723ZM161.572 45.6978C173.717 48.1625 187.233 54.8335 195.881 62.6032C202.249 68.3381 202.539 68.8975 201.725 71.2557C200.367 74.9357 198.265 86.1366 198.309 89.4221C198.356 92.8953 197.324 92.9092 195.212 89.464C186.857 75.6816 168.574 63.6295 150.972 60.2997C129.7 56.3623 105.865 64.1954 92.5559 79.7728C84.4222 89.2715 77.5457 108.424 77.6244 121.191L77.6726 124.758L64.4369 124.937L51.1074 125.117L51.682 119.007C52.4139 110.641 56.0887 97.7287 59.931 90.2597C74.6533 61.1435 103.256 44.796 140.427 44.1997C149.626 44.0754 155.359 44.4673 161.572 45.6978Z" fill="#0075E1"/>
  </svg>