<svg xmlns="http://www.w3.org/2000/svg" width="163" height="76" viewBox="0 0 163 76" fill="none">
    <path d="M156.514 15.7897C153.899 15.6742 151.324 15.7559 150.781 16.0126C150.21 16.2339 149.732 16.2097 149.608 15.9065C149.249 14.8704 150.752 14.0855 153.531 13.8996C156.858 13.6822 156.886 13.7175 151.652 10.7931C138.114 3.2365 116.649 0.389335 104.645 4.58701C101.233 5.78847 97.7343 8.55058 96.4098 11.0877L95.4201 12.959L98.1358 13.8557C105.855 16.3673 111.374 23.1404 109.536 27.8613C108.663 30.099 107.145 31.0104 104.446 30.7889C101.135 30.5915 98.7191 29.0568 95.8249 25.3177C93.1744 21.9601 92.5253 20.1203 92.6948 16.774L92.814 14.672L89.7708 14.378C85.3567 14.0187 80.7677 14.6007 76.4968 16.0216C72.7262 17.277 66.595 20.3384 66.5485 21.0062C66.4908 21.2238 67.6998 22.3921 69.1265 23.618C81.122 33.6541 89.702 47.6483 91.1374 59.4231C91.552 62.71 90.9788 67.5798 90.0226 69.7114C86.7354 76.6663 78.0132 76.9541 68.0692 70.4617C51.0812 59.2609 46.4877 41.0871 57.134 27.1758C58.3469 25.5873 59.969 23.7905 60.8173 23.1209C61.6656 22.4513 62.2962 21.724 62.2906 21.4989C62.1828 20.7809 53.5074 16.0408 49.2142 14.3813C44.3668 12.5284 34.5863 11.1848 30.1517 11.817C27.1178 12.2614 22.5027 13.6098 20.2798 14.7908L19.0167 15.4437L21.4794 18.4907C24.5205 22.3432 25.5192 25.5706 24.6262 28.7998C23.5248 32.7097 20.8405 34.5418 16.99 34.0245C11.5938 33.2931 7.72315 28.3171 8.71115 23.464C9.04607 21.7081 11.2672 18.6353 13.3172 17.017L15.0137 15.6778L13.8716 15.0305C11.686 13.7152 7.23298 11.7804 3.77319 10.6679C0.320838 9.49209 -0.37854 8.89681 0.823159 7.9482C1.95417 7.0554 11.2919 10.5269 16.1243 13.5964C17.112 14.1936 17.5975 14.1545 19.0373 13.3622C19.9618 12.8619 22.3168 11.9208 24.2198 11.2791C34.8618 7.75474 46.8819 9.6825 59.7666 17.0661L64.601 19.8472L67.2276 18.2328C74.1475 13.9176 82.9387 11.6822 90.7549 12.2816L93.2642 12.4808L94.8343 10.0367C99.7994 2.44572 109.671 -0.528096 125.175 0.944119C135.732 1.96218 147.06 5.41149 154.928 9.92833C157.597 11.4928 157.724 11.5077 157.182 10.386C156.877 9.70894 156.113 8.30449 155.529 7.27395C154.43 5.44537 154.485 4.42602 155.719 4.02617C156.219 3.86063 156.666 4.42614 158.209 7.10855C159.245 8.92968 160.819 11.3591 161.712 12.4901C163.239 14.4973 163.231 14.5605 162.284 15.2506C161.578 15.8086 159.797 15.9517 156.514 15.7897ZM88.183 69.2705C90.594 64.0399 88.6823 54.1327 83.4912 44.5769C79.8773 37.9639 70.2368 26.9868 64.8389 23.2736C63.4457 22.3081 59.0351 26.8224 56.4641 31.7777C53.3164 37.8193 52.7952 44.4264 54.9192 50.8961C55.9197 53.8352 56.3717 54.6258 60.0545 59.2912C64.7417 65.229 68.0433 67.958 74.0793 70.8806C81.4471 74.4729 86.0287 73.9542 88.183 69.2705ZM107.707 25.6904C107.585 24.0088 107.321 23.5289 105.449 21.4492C103.236 19.0086 99.0063 16.2665 96.4505 15.6451L95.0461 15.3195L95.0069 17.0141C94.8709 21.7109 100.323 27.9631 105.142 28.6907C107.032 28.9772 107.882 28.0193 107.707 25.6904ZM22.2656 29.5158C23.0675 27.3339 22.2046 23.7698 20.0581 20.76C19.0965 19.3965 17.8615 17.9046 17.3648 17.4935C16.392 16.7698 16.3288 16.7624 14.2769 18.6689C10.6048 22.0839 9.81408 25.806 12.1298 28.7396C13.5806 30.5775 15.1356 31.5299 17.3417 31.8537C20.3068 32.2668 21.4285 31.7256 22.2656 29.5158Z" fill="#0075E1"/>
  </svg>